<svg width="1141" height="1074" viewBox="0 0 1141 1074" fill="none" xmlns="http://www.w3.org/2000/svg">
<mask id="path-1-inside-1_35_2" fill="white">
<path d="M584.53 0C891.822 0.000230909 1140.93 249.11 1140.93 556.401C1140.93 595.434 1136.91 633.527 1129.26 670.291C1099.37 675.853 1068.54 678.764 1037.04 678.764C760.349 678.764 536.047 454.462 536.047 177.771C536.047 115.256 547.498 55.4145 568.416 0.230469C573.769 0.0782417 579.141 0 584.53 0Z"/>
</mask>
<path d="M584.53 0L584.53 -98H584.53V0ZM1140.93 556.401H1238.93V556.401H1140.93ZM1129.26 670.291L1147.19 766.637L1211.82 754.611L1225.21 690.249L1129.26 670.291ZM1037.04 678.764V776.764V776.764V678.764ZM536.047 177.771H438.047V177.772L536.047 177.771ZM568.416 0.230469L565.63 -97.7299L500.037 -95.8645L476.779 -34.5056L568.416 0.230469ZM584.53 0L584.53 98C837.698 98.0002 1042.93 303.233 1042.93 556.401H1140.93H1238.93C1238.93 194.986 945.946 -97.9997 584.53 -98L584.53 0ZM1140.93 556.401H1042.93C1042.93 588.683 1039.61 620.09 1033.32 650.333L1129.26 670.291L1225.21 690.249C1234.21 646.965 1238.93 602.185 1238.93 556.401H1140.93ZM1129.26 670.291L1111.33 573.945C1087.32 578.413 1062.5 580.764 1037.04 580.764V678.764V776.764C1074.59 776.764 1111.42 773.293 1147.19 766.637L1129.26 670.291ZM1037.04 678.764V580.764C814.473 580.764 634.047 400.338 634.047 177.771L536.047 177.771L438.047 177.772C438.047 508.586 706.225 776.764 1037.04 776.764V678.764ZM536.047 177.771H634.047C634.047 127.307 643.277 79.2247 660.053 34.9665L568.416 0.230469L476.779 -34.5056C451.719 31.6042 438.047 103.205 438.047 177.771H536.047ZM568.416 0.230469L571.202 98.1909C575.646 98.0645 580.089 98 584.53 98V0V-98C578.192 -98 571.891 -97.908 565.63 -97.7299L568.416 0.230469Z" fill="#F9070F" mask="url(#path-1-inside-1_35_2)"/>
<mask id="path-3-inside-2_35_2" fill="white">
<path d="M556.401 0C249.11 0.000263896 3.30041e-05 249.11 0 556.401C0 595.434 4.02276 633.527 11.6699 670.291C41.5626 675.853 72.3877 678.764 103.893 678.764C380.583 678.764 604.885 454.462 604.885 177.771C604.885 115.256 593.434 55.4145 572.516 0.230469C567.163 0.0782428 561.791 0 556.401 0Z"/>
</mask>
<path d="M556.401 0L556.401 -99H556.401V0ZM0 556.401H-99V556.401H0ZM11.6699 670.291L-6.44067 767.62L-71.731 755.471L-85.2554 690.452L11.6699 670.291ZM103.893 678.764V777.764V777.764V678.764ZM604.885 177.771H703.885V177.772L604.885 177.771ZM572.516 0.230469L575.33 -98.7295L641.592 -96.8451L665.088 -34.86L572.516 0.230469ZM556.401 0L556.401 99C303.786 99.0002 99 303.786 99 556.401H0H-99C-98.9999 194.433 194.433 -98.9997 556.401 -99L556.401 0ZM0 556.401H99C99 588.614 102.318 619.953 108.595 650.13L11.6699 670.291L-85.2554 690.452C-94.2726 647.102 -99 602.254 -99 556.401H0ZM11.6699 670.291L29.7805 572.962C53.7344 577.419 78.4976 579.764 103.893 579.764V678.764V777.764C66.2779 777.764 29.3907 774.288 -6.44067 767.62L11.6699 670.291ZM103.893 678.764V579.764C325.907 579.764 505.885 399.786 505.885 177.771L604.885 177.771L703.885 177.772C703.885 509.138 435.259 777.764 103.893 777.764V678.764ZM604.885 177.771H505.885C505.885 127.43 496.677 79.4677 479.943 35.321L572.516 0.230469L665.088 -34.86C690.19 31.3613 703.885 103.082 703.885 177.771H604.885ZM572.516 0.230469L569.701 99.1905C565.266 99.0643 560.833 99 556.401 99V0V-99C562.749 -99 569.059 -98.9079 575.33 -98.7295L572.516 0.230469Z" fill="#F9070F" mask="url(#path-3-inside-2_35_2)"/>
<mask id="path-5-inside-3_35_2" fill="white">
<path d="M574.207 581.802C679.581 694.061 829.876 764.272 996.703 764.272C1026.43 764.272 1055.63 762.042 1084.14 757.743C1005.44 926.574 843.243 1049.28 650.081 1073.77V963.674C733.759 950.426 809.64 914.226 870.978 861.841C760.528 841.509 659.293 794.892 574.207 728.782C491.065 793.381 392.505 839.366 284.995 860.404C347.079 913.958 424.256 950.847 509.439 963.967V1074.01C315.99 1050.14 153.361 927.798 74.1636 759.146C99.528 762.525 125.414 764.272 151.711 764.272C318.537 764.272 468.832 694.061 574.207 581.802Z"/>
</mask>
<path d="M574.207 581.802L630.348 529.103L574.207 469.294L518.065 529.103L574.207 581.802ZM996.703 764.272V841.272V841.272V764.272ZM1084.14 757.743L1153.93 790.275L1214.56 660.212L1072.66 681.604L1084.14 757.743ZM650.081 1073.77H573.081V1161.15L659.765 1150.16L650.081 1073.77ZM650.081 963.674L638.04 887.621L573.081 897.906V963.674H650.081ZM870.978 861.841L920.984 920.393L1043.94 815.386L884.918 786.113L870.978 861.841ZM574.207 728.782L621.449 667.978L574.207 631.272L526.964 667.978L574.207 728.782ZM284.995 860.404L270.207 784.838L114.765 815.255L234.701 918.71L284.995 860.404ZM509.439 963.967H586.439V897.918L521.16 887.864L509.439 963.967ZM509.439 1074.01L500.011 1150.43L586.439 1161.09V1074.01H509.439ZM74.1636 759.146L84.3312 682.821L-55.4926 664.194L4.46583 791.876L74.1636 759.146ZM151.711 764.272L151.711 841.272H151.711L151.711 764.272ZM574.207 581.802L518.065 634.5C637.458 761.694 807.838 841.272 996.703 841.272V764.272V687.272C851.915 687.272 721.704 626.428 630.348 529.103L574.207 581.802ZM996.703 764.272V841.272C1030.28 841.272 1063.32 838.752 1095.62 833.883L1084.14 757.743L1072.66 681.604C1047.93 685.332 1022.57 687.272 996.703 687.272V764.272ZM1084.14 757.743L1014.35 725.211C946.626 870.499 806.856 976.281 640.396 997.384L650.081 1073.77L659.765 1150.16C879.629 1122.29 1064.26 982.65 1153.93 790.275L1084.14 757.743ZM650.081 1073.77H727.081V963.674H650.081H573.081V1073.77H650.081ZM650.081 963.674L662.121 1039.73C760.184 1024.2 849.125 981.764 920.984 920.393L870.978 861.841L820.972 803.288C770.154 846.689 707.334 876.65 638.04 887.621L650.081 963.674ZM870.978 861.841L884.918 786.113C786.889 768.068 697.023 726.697 621.449 667.978L574.207 728.782L526.964 789.586C621.564 863.088 734.167 914.95 857.038 937.568L870.978 861.841ZM574.207 728.782L526.964 667.978C453.118 725.355 365.624 766.166 270.207 784.838L284.995 860.404L299.782 935.971C419.386 912.566 529.012 861.407 621.449 789.586L574.207 728.782ZM284.995 860.404L234.701 918.71C307.434 981.449 397.895 1024.7 497.718 1040.07L509.439 963.967L521.16 887.864C450.618 877 386.725 846.467 335.288 802.099L284.995 860.404ZM509.439 963.967H432.439V1074.01H509.439H586.439V963.967H509.439ZM509.439 1074.01L518.867 997.587C352.159 977.021 212.017 871.555 143.861 726.417L74.1636 759.146L4.46583 791.876C94.705 984.041 279.821 1123.26 500.011 1150.43L509.439 1074.01ZM74.1636 759.146L63.996 835.472C92.7172 839.298 122 841.272 151.711 841.272L151.711 764.272L151.711 687.272C128.829 687.272 106.339 685.752 84.3312 682.821L74.1636 759.146ZM151.711 764.272L151.711 841.272C340.576 841.272 510.955 761.693 630.348 634.5L574.207 581.802L518.065 529.103C426.709 626.428 296.499 687.272 151.711 687.272L151.711 764.272Z" fill="#F9070F" mask="url(#path-5-inside-3_35_2)"/>
</svg>
